<svg id="myImg" class="mainimage" style="fill:#B40404" role="img" xmlns="http://www.w3.org/2000/svg" viewBox="0 0 1000 1000"><title>Do Not Stir Im SVG icon</title><path d="M500,10C229.4,10,10,229.3,10,500c0,270.7,219.4,490,490,490c270.6,0,490-219.4,490-490C990,229.3,770.6,10,500,10z M898.1,500c0,90.5-30.2,174-81.2,240.9L259.1,183c66.9-50.9,150.4-81.1,240.9-81.1C719.9,101.9,898.1,280.1,898.1,500z M101.9,500c0-90.5,30.2-174,81.1-240.9l557.9,557.8C674,867.8,590.5,898.1,500,898.1C280.1,898.1,101.9,719.8,101.9,500z"></path></svg>