<svg id="myImg" class="mainimage" style="fill:#B40404" role="img" xmlns="http://www.w3.org/2000/svg" viewBox="0 0 1000 1000"><title>Error SVG icon</title><path d="M500,42.5c252.7,0,457.5,204.8,457.5,457.5c0,252.7-204.8,457.5-457.5,457.5C247.3,957.5,42.5,752.7,42.5,500C42.5,247.3,247.3,42.5,500,42.5 M510.2,416.5l-131.4-115c-10.8-10.2-27.9-20.3-42.4-20.3c-6,0-11.5,1.7-16,5.9l-29.2,28.7c-15.3,14.4-15.3,43.1,0,57.5l131.4,129.3L291.2,632c-15.3,14.4,0.3,45.7,14.6,57.5c14.3,11.8,29.5,24.8,43.8,28.7c3.4,0.9,6.8,1.4,10.3,1.4c11.1,0,22.3-4.9,33.5-15.8l116.8-115l131.4,115c7.7,7.2,18,10.8,28.6,10.8s21.3-3.6,29.8-10.8l29.2-28.7c10.5-11.2,17.4-41.8-14.6-71.8L597.8,502.6l131.4-129.3c10.6-14.3,3.7-55-11.6-69.4l-6.9-6.5c-10.1-9.5-30.3-17.2-47.3-17.2c-8.7,0-16.6,2-21.8,6.9L510.2,416.5 M500,10C229.8,10,10,229.8,10,500c0,270.2,219.8,490,490,490c270.2,0,490-219.8,490-490S770.2,10,500,10L500,10z M661.9,312.8c0.4,0,0.9,0,1.5,0c9.3,0,21.4,5,25,8.4l6.9,6.5c3.7,4.2,7.1,19.4,6.5,27.1L575,479.5l-25.1,24.8l26.7,23l116.2,100.1c13.6,13,13.5,22.7,12.1,26l-26.6,26.2c-2.2,1.6-5.1,2.5-8.1,2.5c-2.6,0-5-0.7-6.3-2l-0.4-0.4l-0.5-0.4L531.6,564.4l-22.7-19.9l-21.5,21.2l-116.8,115c-4.1,4-8.2,6.5-10.7,6.5c-0.5,0-1.1-0.1-1.8-0.3c-6.6-1.8-19.4-12.3-28.7-20.1l-3-2.4c-3-2.4-6.8-8.8-8.3-13.3l127.3-125.3l23.5-23.2l-23.5-23.2L314,350.2c-2.2-2.4-2.2-8.8-0.5-10.7l25.7-25.3c4.1,1.4,11.2,5,17.4,10.9l0.4,0.4l0.4,0.4l131.4,115l22.7,19.9l21.5-21.2L661.9,312.8L661.9,312.8z"></path></svg>