<svg id="myImg" class="mainimage" style="fill:#0273a2" role="img" xmlns="http://www.w3.org/2000/svg" viewBox="0 0 1000 1000"><title>The Server SVG icon</title><path d="M283.2,756.9l-71.8,71.8h342.8l-71.8-71.8H283.2z M755.5,714.5H10V171.3h745.5L755.5,714.5L755.5,714.5z M683.7,642.7V243.1l-601.9,0l0,399.6H683.7L683.7,642.7z M823.3,826.3H990V171.3H823.3V826.3z M926.3,643.1c0,10.8-8.8,19.6-19.6,19.6c-10.9,0-19.6-8.8-19.6-19.6c0-10.9,8.8-19.6,19.6-19.6C917.5,623.4,926.3,632.2,926.3,643.1z M924.5,385.6v181.8h-35.7V385.6H924.5L924.5,385.6z"></path></svg>